# xmcd
#
# Track frame offsets: 
#        150
#        17627
#        43452
#        70775
#        88825
#        108292
#        132787
#        154362
#        171995
#        229055
#
# Disc length: 4695 seconds
#
# Revision: 3
# Processed by: cddbd v1.5.2PL0 Copyright (c) Steve Scherf et al.
# Submitted via: ExactAudioCopy v0.90b4
#
DISCID=8512550a
DTITLE=Endorphin - AM:PM [CD2]
DYEAR=2001
DGENRE=New Age
TTITLE0=Computer Games
TTITLE1=Viva
TTITLE2=Satie 3
TTITLE3=Pressure
TTITLE4=Get The Funk
TTITLE5=Fear
TTITLE6=Dare
TTITLE7=Flight 601
TTITLE8=Sex and Violence (Nash T vs Archie Remix)
TTITLE9=Data Track
EXTD=YEAR: 2001
EXTT0=
EXTT1=
EXTT2=
EXTT3=
EXTT4=
EXTT5=
EXTT6=
EXTT7=
EXTT8=
EXTT9=
PLAYORDER=
